<?xml version="1.0" ?><svg viewBox="0 0 48 48" xmlns="http://www.w3.org/2000/svg"><title/><g data-name="Layer 23" id="Layer_23"><path d="M23,31H8a3,3,0,0,1-3-3V22a3,3,0,0,1,3-3H23a3,3,0,0,1,3,3v6A3,3,0,0,1,23,31ZM8,21a1,1,0,0,0-1,1v6a1,1,0,0,0,1,1H23a1,1,0,0,0,1-1V22a1,1,0,0,0-1-1Z"/><path d="M25,16H15a1,1,0,0,1-.92-.62,1,1,0,0,1,.21-1.09l10-10a1,1,0,0,1,1.09-.21A1,1,0,0,1,26,5V15A1,1,0,0,1,25,16Zm-7.59-2H24V7.41Z"/><path d="M11.29,22.29h1v4.9h-.74l-2.1-3v3h-1v-4.9h.73l2.1,3Z"/><path d="M14.13,26.27H16.2v.92h-3v-4.9h3v.93h-2v1H16v.91H14.13Z"/><path d="M17.82,27.19l-1.29-4.9h1l.94,3.63,1-3.63h.84l1,3.63.93-3.63h.93l-1.28,4.9h-1.1l-.93-3.25L19,27.19Z"/><path d="M40,43H33.43a1,1,0,0,1,0-2H40a1,1,0,0,0,1-1V7a1,1,0,0,0-1-1H25.41L16,15.41V20a1,1,0,0,1-2,0V15a1,1,0,0,1,.29-.71l10-10A1,1,0,0,1,25,4H40a3,3,0,0,1,3,3V40A3,3,0,0,1,40,43Z"/><path d="M30.57,43H17a3,3,0,0,1-3-3V30a1,1,0,0,1,2,0V40a1,1,0,0,0,1,1H30.57a1,1,0,0,1,0,2Z"/><path d="M32,45a1,1,0,0,1-.81-.42l-5-7A1,1,0,0,1,27,36h1V31a1,1,0,0,1,1-1h6a1,1,0,0,1,1,1v5h1a1,1,0,0,1,.81,1.58l-5,7A1,1,0,0,1,32,45Zm-3.06-7L32,42.28,35.06,38H35a1,1,0,0,1-1-1V32H30v5a1,1,0,0,1-1,1Z"/></g></svg>